<?xml version="1.0" encoding="utf-8"?>
<!-- Generator: Adobe Illustrator 19.2.1, SVG Export Plug-In . SVG Version: 6.00 Build 0)  -->
<svg version="1.1" id="layer" xmlns="http://www.w3.org/2000/svg" xmlns:xlink="http://www.w3.org/1999/xlink" x="0px" y="0px"
	 viewBox="0 0 652 652" style="enable-background:new 0 0 652 652;" xml:space="preserve">
<style type="text/css">
	.st0{fill:#8F085E;}
</style>
<path d="M144.4,316.1c-0.1-4.7-4.5-11.3-13-11.1c-7.9,0.1-12.1,6-12.3,11.1H144.4z M118.7,326.9c0.2,2.9,1,5.3,2.8,7.4
	c3,3.6,7.1,4.6,11.6,4.7c5.8,0.1,9.8-2.9,13.1-7.3c0.3-0.4,0.5-0.7,0.9-1.2l10.6,6.5c-1.3,1.9-2.5,3.9-3.9,5.5
	c-6.1,6.8-13.9,9.5-23,9c-4.8-0.3-9.4-1.4-13.6-3.7c-6.5-3.6-10.5-9.1-12.4-16.2c-2-8-1.7-15.9,1.9-23.4c4.3-8.8,11.4-13.9,21.1-15
	c7.6-0.9,14.8,0.4,21,5c5.7,4.1,8.9,9.9,9.8,16.8c0.5,3.4,0.4,7,0.5,10.5c0.1,1.1-0.4,1.5-1.5,1.5c-12.5,0-25,0-37.4,0
	C120.4,326.9,118.7,326.9,118.7,326.9z M85.1,350.7v-1.3c0-11.2,0-22.3,0-33.5c0-1.6-0.2-3.2-0.5-4.7c-0.9-3.7-3.6-5.6-7.5-5.3
	c-4.2,0.3-6.8,2.7-7.3,7c-0.1,1.2-0.2,2.5-0.2,3.7c0,10.9,0,21.8,0,32.7c0,1-0.2,1.4-1.3,1.4c-3.8-0.1-7.7-0.1-11.5,0
	c-1,0-1.3-0.3-1.3-1.3c0-17.1,0-34.1,0-51.2c0-7.9,0-3.8,0-11.7c0-1.1,0.2-1.5,1.4-1.5c3.8,0.1,7.7,0,11.5,0c0.4,0,0.7,0,1.2,0.1
	v12.6c0.4-0.2,0.6-0.2,0.8-0.3c2.3-2.7,5.5-3.6,8.8-4c4.6-0.6,9.2,0,13.2,2.9c3.5,2.6,5.6,6.1,6.2,10.3c0.5,3.3,0.7,6.6,0.7,9.9
	c0.1,10.9,0,21.8,0.1,32.7c0,1.2-0.4,1.5-1.5,1.5C93.6,350.6,89.4,350.7,85.1,350.7 M25.9,305.9c-1.4,0-2.7-0.1-4,0
	c-1,0.1-1.3-0.4-1.3-1.3c0-3.2,0-6.3,0-9.5c0-0.9,0.3-1.3,1.2-1.3c1.3,0.1,2.6,0,4.1,0c0-2.5,0.1-5,0-7.4c0-1.2,0.3-1.5,1.5-1.5
	c3.8,0.1,7.6,0.1,11.4,0c1.1,0,1.4,0.3,1.4,1.4c-0.1,2.4,0,4.9,0,7.4h8.5v12h-8.4c-0.1,0.4-0.2,0.7-0.2,0.9c0,8.9,0,17.8,0.1,26.7
	c0,3.5,1.6,4.9,5.1,5c1.1,0,2.2,0,3.4,0v6.8c0,1.5,0,2.9,0,4.4c0,0.4-0.4,1-0.7,1.1c-5,0.9-9.9,1.1-14.8-0.7
	c-3.6-1.3-5.6-4.1-6.5-7.7c-0.6-2.2-0.8-4.6-0.8-7c-0.1-9.2,0-18.5,0-27.7C25.9,307.5,25.9,305.9,25.9,305.9z"/>
<path class="st0" d="M489.2,305.9c-5.9-0.5-10.8,1.2-14.1,6.4c-2.7,4.2-3.3,8.7-2.5,13.5c1.3,7.8,7.2,12.8,15.1,12.9
	c5.8,0,9.9-2.1,12.9-6.9c2.2-3.5,2.7-7.4,2.4-11.5C502.4,312.7,496.5,306.5,489.2,305.9"/>
<path class="st0" d="M548,308.6c-1.4,0-2.8-0.1-4.2,0c-4.6,0.2-6.7,2.3-6.7,6.9c-0.1,11.2,0,22.4,0,33.6v1.5h-14.1
	c0-0.4-0.1-0.8-0.1-1.2c0-18.1,0-36.2,0-54.2c0-1.1,0.3-1.4,1.4-1.4c3.8,0.1,7.7,0.1,11.5,0c1.1,0,1.4,0.4,1.3,1.4
	c-0.1,0.9,0,1.8,0,3c3.7-4.1,7.9-4.7,11-4.3L548,308.6L548,308.6z M509.4,342.8c-4.5,4.8-10.1,7.4-16.6,8.4
	c-1.8,0.3-3.6,0.3-5.4,0.4c-7,0.1-13.3-1.9-18.7-6.2c-5.7-4.5-9-10.5-10.2-17.6c-0.9-5.5-0.6-10.9,1.4-16.1
	c3-7.8,8.2-13.6,16.1-16.6c9.8-3.7,19.4-3.1,28.4,2.4c7.2,4.4,11.2,11,12.4,19.3C518.4,326.6,516.3,335.4,509.4,342.8L509.4,342.8z
	 M453.7,350.6c-4.9,0.8-9.7,1-14.4-0.7c-3.8-1.3-5.9-4.1-6.9-7.8c-0.6-2.3-0.8-4.7-0.8-7.1c-0.1-9.2-0.1-18.5,0-27.7
	c0-1.1-0.3-1.5-1.4-1.4c-1,0.1-2,0-2.9,0c-0.7,0-1-0.3-1-1c0-3.4,0-6.8,0-10.1c0-0.9,0.5-1,1.1-1c1.4,0,2.7,0,4.2,0
	c0-2.6,0.1-5,0-7.4c0-1.1,0.2-1.5,1.4-1.5c3.8,0.1,7.6,0.1,11.4,0c1.1,0,1.5,0.3,1.5,1.4c-0.1,2.4,0,4.9,0,7.4h8.5v12.1
	c-2.6,0-5,0-7.5,0c-0.8,0-1.1,0.2-1.1,1c0,8.8,0,17.7,0.1,26.5c0,3.5,1.6,4.9,5.1,5c1.1,0,2.1,0,3.4,0v1.7c0,3.1,0,6.2,0,9.4
	C454.5,350,454.4,350.5,453.7,350.6L453.7,350.6z M421.4,349c0,1.6,0,1.6-1.7,1.6h-12.5v-1.6c0-10.9,0-21.9,0-32.8
	c0-2.1-0.4-4.1-0.9-6.1c-0.8-2.7-3-3.8-5.7-4.1c-5.7-0.6-8.6,3.2-8.7,7.9c-0.1,4-0.1,8-0.1,12c0,7.7,0,15.3,0,23
	c0,1.8,0,1.8-1.8,1.8h-12.3V294h14.2v3.8c5.4-5,11.6-5.5,18.2-3.8c5.7,1.4,10.1,6.7,10.9,13.1c0.4,3,0.6,6.1,0.6,9.2
	C421.5,327.2,421.4,338.1,421.4,349z M370.8,325.8c0,1.2-0.8,1.1-1.6,1.1c-12.4,0-24.9,0-37.3,0h-1.7c0.2,2.9,1,5.4,2.8,7.5
	c4.2,4.7,9.6,5.2,15.3,4.1c4.1-0.8,6.8-3.7,9.3-6.8c0.3-0.4,0.6-0.7,0.9-1.3l10.4,6.4c-1.4,3-3.4,5.7-5.9,7.9
	c-5.1,4.6-11.3,6.8-18,6.8c-8.8,0.1-16.7-2.3-22.9-9c-3.8-4.2-5.8-9.2-6.6-14.7c-0.8-5.8-0.5-11.5,1.6-17
	c3.5-9.3,10.1-15.3,19.9-17.3c7.6-1.5,15-0.5,21.7,3.6c5.1,3.1,8.4,7.7,10.4,13.3C371,315.4,370.9,320.6,370.8,325.8L370.8,325.8z
	 M296.9,349.3c-0.3,1-0.8,1.4-1.9,1.4c-4.7-0.1-9.4,0-14.2,0L260.4,294c0.4-0.1,0.7-0.1,1-0.1c4.4,0,8.9,0,13.3,0
	c1,0,1.5,0.3,1.8,1.3c4,12.2,8,24.3,12,36.4c0.1,0.2,0.2,0.4,0.4,0.9c0.3-0.6,0.4-0.9,0.6-1.3c4-12,7.9-24,11.8-36.1
	c0.3-1,0.8-1.3,1.8-1.3c4.4,0.1,8.7,0,13.4,0c-0.7,2.1-1.5,4.2-2.2,6.3C308.4,316.6,302.7,333,296.9,349.3L296.9,349.3z
	 M258.5,348.9c0,1.8,0,1.8-1.8,1.8h-12.3c0-0.5-0.1-1-0.1-1.5c0-11.1,0-22.1,0-33.2c0-2.5-0.1-5.1-1.6-7.2c-0.4-0.6-1-1.2-1.6-1.6
	c-4.7-2.6-12-1.3-12.2,7c-0.2,11.6-0.1,23.2-0.1,34.7c0,1.9,0,1.9-1.9,1.9h-12.3V294h14.1v3.8c0.3-0.2,0.5-0.3,0.6-0.4
	c5.5-5.7,18-5.6,23.7,0c2.5,2.4,4.2,5.6,4.7,9c0.4,2.7,0.7,5.4,0.7,8.1C258.5,326.1,258.5,337.5,258.5,348.9L258.5,348.9z
	 M203.9,275v75.6h-14.5V275h-18.5v94.2h395.6c1-3.2,2.1-6.3,3.2-9.4c1.2-3.4,2.5-6.7,3.7-10.1c0.2-0.7,0.3-1.6,0-2.3
	c-6.8-17.3-13.7-34.6-20.6-51.9c-0.2-0.4-0.3-0.8-0.5-1.3c0.6,0,1-0.1,1.5-0.1c4.2,0,8.4,0.1,12.6,0c1.3,0,1.8,0.5,2.2,1.6
	c4,10.7,8,21.4,12.1,32.1c0.1,0.3,0.3,0.7,0.8,1c0.7-1.8,1.4-3.7,2.1-5.5c3.4-9.4,6.8-18.7,10.3-28.1c0.1-0.4,0.7-0.9,1.1-0.9
	c4.4-0.1,8.8,0,13.2,0c-1.1,4.4-2.7,8.6-4.3,12.8c-4.9,12.8-9.7,25.6-14.6,38.4c-2.9,7.6-5.8,15.3-8.7,22.9c-0.2,0.4-0.3,0.9-0.7,1
	h40.8V275H203.9z"/>
<path class="st0" d="M343.2,305c-7.9-0.2-12.2,5.7-12.5,11.1h25.3C356.1,310.1,350.3,305.2,343.2,305"/>
</svg>
